# xmcd CD database file
#
# Track frame offsets:
#	150
#	24825
#	42552
#	59290
#	79285
#	93905
#	114337
#	135990
#	165892
#	187600
#	221767
#
# Disc length: 4440 seconds
#
# Revision: 1
# Processed by: cddbd v1.5.2PL0 Copyright (c) Steve Scherf et al.
# Submitted via: CDex 1.70beta2
#
DISCID=7f11560b
DTITLE=hitomi - HTM ~TIARTROP FLES~
DYEAR=2003
DGENRE=J-POP
TTITLE0=Fighting Girl
TTITLE1=BLADE RUNNER
TTITLE2=7（SEVEN）
TTITLE3=永遠というカテゴリー
TTITLE4=アイドルを探せ (LA PLUS BELLE POUR ALLER DANSER)
TTITLE5=destiny
TTITLE6=プラスティックタイムマシーン （8・2・1 version）
TTITLE7=innocence （regenerated version）
TTITLE8=My Planet
TTITLE9=エレファントラブ （atami feat. hitomi）
TTITLE10=@
EXTD=YEAR: 2003
EXTT0=
EXTT1=
EXTT2=
EXTT3=
EXTT4=
EXTT5=
EXTT6=
EXTT7=
EXTT8=
EXTT9=
EXTT10=
PLAYORDER=
